<svg xmlns="http://www.w3.org/2000/svg" viewBox="0 0 130.06 18.93">
  <path transform="translate(-39.7475,0.0000) scale(0.908576)" fill="#EE3D2C" d="M 62.064999,8.591 L 53.433999,13.45 L 44.192,8.258 L 43.747,8.498 L 43.747,12.267999999999999 L 53.433999,17.698999999999998 L 62.063999,12.858999999999998 L 62.063999,14.854 L 53.433999,19.714 L 44.192,14.521999999999998 L 43.747,14.761999999999999 L 43.747,15.408 L 53.433999,20.84 L 63.101999,15.408 L 63.101999,11.639 L 62.656999,11.399 L 53.433999,16.572 L 44.784,11.732 L 44.784,9.736 L 53.433999,14.576 L 63.101999,9.146 L 63.101999,5.43 L 62.619999,5.153 L 53.433999,10.308 L 45.229,5.726 L 53.433999,1.1260000000000003 L 60.174999,4.913 L 60.767999,4.581 L 60.767999,4.119 L 53.433999,0.0 L 43.747,5.431 L 43.747,6.023 L 53.433999,11.455 L 62.063999,6.595 L 62.064999,8.591"/>
  <g transform="translate(23.2128,-26.6970)" fill="#FFFFFF">
    <path d="M 12.299,44.302346 L 12.299,27.711346 L 9.743000000000002,27.711346 L 9.743000000000002,33.918346 C 9.743000000000002,34.011345999999996 9.687000000000005,34.085346 9.594999999999999,34.122346 A 0.23,0.23 0.0 0,1 9.355000000000004,34.066345999999996 C 8.484000000000002,33.050346 7.131999999999998,32.477346 5.650000000000002,32.477346 C 2.483000000000004,32.477346 0.0,35.137346 0.0,38.537346 C 0.0,40.200345999999996 0.5749999999999993,41.734346 1.629999999999999,42.861346 A 5.44,5.44 0.0 0,0 5.649999999999999,44.597346 C 7.1129999999999995,44.597346 8.464999999999996,43.987346 9.354,42.935346 C 9.409999999999997,42.861346 9.521,42.842346000000006 9.594000000000001,42.861346 C 9.687000000000005,42.898346000000004 9.744,42.971346 9.744,43.064346 L 9.744,44.302346 L 12.299,44.302346 M 6.2059999999999995,42.288346000000004 C 4.167999999999999,42.288346000000004 2.5760000000000005,40.644346 2.5760000000000005,38.538346000000004 C 2.5760000000000005,36.431346000000005 4.167999999999999,34.787346 6.2059999999999995,34.787346 C 8.244,34.787346 9.835999999999999,36.431346000000005 9.835999999999999,38.537346 C 9.835999999999999,40.643346 8.243000000000002,42.287346 6.2059999999999995,42.287346 M 25.967999999999996,44.303346000000005 L 25.967999999999996,32.755345999999996 L 23.431000000000004,32.755345999999996 L 23.431000000000004,33.919346 C 23.431000000000004,34.012346 23.375000000000007,34.085346 23.282000000000004,34.122346 A 0.2,0.2 0.0 0,1 23.042,34.049346 C 22.190000000000005,33.032346 20.856,32.459346 19.337000000000003,32.459346 C 16.17,32.459346 13.688000000000002,35.120346 13.688000000000002,38.519346 C 13.688000000000002,41.919346 16.17,44.579346 19.338,44.579346 C 20.801000000000002,44.579346 22.153,43.969346 23.042,42.899345999999994 C 23.097,42.824346 23.208,42.806346 23.282000000000004,42.824346 C 23.375000000000007,42.861346 23.431000000000004,42.935345999999996 23.431000000000004,43.028346 L 23.431000000000004,44.284346 L 25.968000000000004,44.284346 L 25.967999999999996,44.303346000000005 M 19.912,42.289345999999995 C 17.874000000000002,42.289345999999995 16.281999999999996,40.644346 16.281999999999996,38.539345999999995 C 16.281999999999996,36.432345999999995 17.873999999999995,34.788346 19.912,34.788346 C 21.949999999999996,34.788346 23.542,36.432345999999995 23.542,38.538346 C 23.542,40.644346 21.949000000000005,42.288346000000004 19.912,42.288346000000004 M 47.69299999999999,44.303346000000005 L 47.69299999999999,32.755345999999996 L 45.15500000000001,32.755345999999996 L 45.15500000000001,33.919346 C 45.15500000000001,34.012346 45.1,34.085346 45.00700000000001,34.122346 C 44.91400000000001,34.159346 44.82200000000001,34.122346 44.76700000000002,34.049346 C 43.913999999999994,33.032346 42.580999999999996,32.459346 41.062000000000005,32.459346 C 37.876000000000005,32.459346 35.413000000000004,35.120346 35.413000000000004,38.539345999999995 C 35.413000000000004,41.956345999999996 37.895,44.599346 41.062000000000005,44.599346 C 42.525,44.599346 43.877,43.989346 44.766,42.917345999999995 C 44.821999999999996,42.843346 44.933,42.824346 45.007,42.843346 C 45.1,42.880345999999996 45.154999999999994,42.953345999999996 45.154999999999994,43.046346 L 45.154999999999994,44.302346 L 47.69299999999999,44.303346000000005 M 41.636,42.289345999999995 C 39.599,42.289345999999995 38.006,40.644346 38.006,38.539345999999995 C 38.006,36.432345999999995 39.599,34.788346 41.636,34.788346 C 43.67300000000001,34.788346 45.266,36.432345999999995 45.266,38.538346 C 45.266,40.644346 43.672999999999995,42.288346000000004 41.636,42.288346000000004 M 52.342000000000006,42.935345999999996 C 52.36100000000001,42.935345999999996 52.398,42.916346000000004 52.416000000000004,42.916346000000004 C 52.472,42.916346000000004 52.546,42.953345999999996 52.583000000000006,42.990346 C 53.45300000000001,44.00634600000001 54.805,44.579346 56.287,44.579346 C 59.454,44.579346 61.937000000000005,41.919346000000004 61.937000000000005,38.519346 C 61.937000000000005,36.856346 61.362,35.323346 60.30700000000001,34.196346000000005 A 5.44,5.44 0.0 0,0 56.287,32.459346 C 54.824000000000005,32.459346 53.472,33.069345999999996 52.583000000000006,34.122346 C 52.52700000000001,34.196346 52.43500000000001,34.214346 52.34300000000001,34.196346 C 52.25000000000001,34.159346 52.193999999999996,34.085346 52.193999999999996,33.992346 L 52.193999999999996,27.711346 L 49.638,27.711346 L 49.638,44.301345999999995 L 52.193999999999996,44.301345999999995 L 52.193999999999996,43.139346 C 52.193999999999996,43.046346 52.24999999999999,42.973346 52.34199999999999,42.936346 M 52.08199999999999,38.538346000000004 C 52.08199999999999,36.432346 53.67599999999998,34.788346000000004 55.71299999999999,34.788346000000004 C 57.74999999999999,34.788346000000004 59.34299999999998,36.432346 59.34299999999998,38.538346000000004 C 59.34299999999998,40.644346 57.74999999999998,42.288346000000004 55.71299999999999,42.288346000000004 C 53.67599999999998,42.288346000000004 52.08299999999999,40.626346 52.08299999999999,38.538346000000004 M 69.327,35.122346 C 69.56700000000001,35.122346 69.78999999999999,35.141346 69.93700000000001,35.178346 L 69.93700000000001,32.554345999999995 A 2.4,2.4 0.0 0,0 69.512,32.517345999999996 C 68.178,32.517345999999996 66.95600000000002,33.201346 66.30800000000002,34.291346 C 66.25200000000001,34.383346 66.15900000000002,34.421346 66.06700000000001,34.383346 A 0.21999999999999997,0.21999999999999997 0.0 0,1 65.9,34.180346 L 65.9,32.757346 L 63.36299999999999,32.757346 L 63.36299999999999,44.323346 L 65.91899999999998,44.323346 L 65.91899999999998,39.223346 C 65.91899999999998,36.693346 67.215,35.123346 69.327,35.123346 M 74.142,32.756346 L 71.54899999999998,32.756346 L 71.54899999999998,44.322345999999996 L 74.142,44.322345999999996 L 74.142,32.756346 M 72.80799999999999,27.729346 A 1.5709999999999997,1.5709999999999997 0.0 1,0 72.80799999999999,30.870345999999998 A 1.5709999999999997,1.5709999999999997 0.0 1,0 72.80799999999999,27.730345999999997 M 81.73599999999999,32.459346 C 78.18,32.459346 75.60499999999999,35.009345999999994 75.60499999999999,38.539345999999995 C 75.60499999999999,40.256346 76.21699999999998,41.789345999999995 77.309,42.899345999999994 C 78.42099999999999,44.007346 79.976,44.617346 81.71699999999998,44.617346 C 83.16199999999998,44.617346 84.273,44.340346 86.38499999999999,42.787346 L 84.922,41.254346 C 83.88400000000001,41.938345999999996 82.92099999999999,42.270345999999996 81.977,42.270345999999996 C 79.828,42.270345999999996 78.21700000000001,40.663346 78.21700000000001,38.538346 C 78.21700000000001,36.413346 79.828,34.806346 81.977,34.806346 C 82.995,34.806346 83.94,35.139345999999996 84.88500000000002,35.822345999999996 L 86.51400000000001,34.289345999999995 C 84.607,32.663346 82.88400000000001,32.459346 81.73599999999999,32.459346 M 90.88499999999999,39.221346 A 0.2,0.2 0.0 0,1 91.03399999999999,39.166346 L 91.05199999999999,39.166346 C 91.108,39.166346 91.16300000000001,39.203345999999996 91.219,39.239346 L 95.31200000000001,44.302346 L 98.46100000000001,44.302346 L 93.16400000000002,37.909346 C 93.089,37.81734599999999 93.089,37.687346 93.18200000000002,37.614346 L 98.053,32.754346 L 94.923,32.754346 L 90.71900000000002,36.96734599999999 C 90.66300000000001,37.022346 90.57100000000003,37.041346 90.47800000000001,37.022346 A 0.23,0.23 0.0 0,1 90.34800000000001,36.819345999999996 L 90.34800000000001,27.729346 L 87.77400000000003,27.729346 L 87.77400000000003,44.320346 L 90.33000000000001,44.320346 L 90.33000000000001,39.812346000000005 C 90.33000000000001,39.757346 90.34800000000001,39.682346 90.40400000000002,39.646346 L 90.88499999999999,39.221346"/>
    <path d="M 102.626,44.598346 C 104.719,44.598346 106.84899999999999,43.323346 106.84899999999999,40.903346 C 106.84899999999999,39.314346 105.84899999999999,38.223346 103.81199999999998,37.559346 L 102.422,37.097346 C 101.47799999999998,36.783346 101.03299999999999,36.339346 101.03299999999999,35.730346 C 101.03299999999999,35.028346 101.66299999999998,34.547346000000005 102.55199999999999,34.547346000000005 C 103.404,34.547346000000005 104.16299999999998,35.102346 104.64499999999998,36.062346000000005 L 106.701,34.954346 C 105.94200000000001,33.402346 104.36699999999999,32.441346 102.55199999999999,32.441346 C 100.255,32.441346 98.589,33.919346000000004 98.589,35.933346 C 98.589,37.540346 99.55199999999999,38.612346 101.53300000000002,39.240346 L 102.96000000000001,39.702346 C 103.96000000000001,40.016346 104.386,40.422346000000005 104.386,41.069345999999996 C 104.386,42.049346 103.47800000000001,42.399345999999994 102.69999999999999,42.399345999999994 C 101.66299999999998,42.399345999999994 100.737,41.734346 100.293,40.644346 L 98.19999999999999,41.753346 C 98.88499999999999,43.508346 100.57,44.598346 102.626,44.598346 M 33.08,44.487346 C 33.894999999999996,44.487346 34.617999999999995,44.413346 35.025,44.357346 L 35.025,42.141346 A 14.0,14.0 0.0 0,1 33.747,42.214346 C 32.71,42.214346 31.914,42.030345999999994 31.914,39.794346 L 31.914,35.046346 C 31.914,34.916346 32.006,34.824346 32.136,34.824346 L 34.636,34.824346 L 34.636,32.736346 L 32.136,32.736346 A 0.214,0.214 0.0 0,1 31.914,32.515346 L 31.914,29.189346 L 29.358000000000004,29.189346 L 29.358000000000004,32.533345999999995 C 29.358000000000004,32.663346 29.265,32.755345999999996 29.135000000000005,32.755345999999996 L 27.357000000000006,32.755345999999996 L 27.357000000000006,34.843346 L 29.135000000000005,34.843346 C 29.265000000000008,34.843346 29.358000000000004,34.935345999999996 29.358000000000004,35.064346 L 29.358000000000004,40.441345999999996 C 29.358000000000004,44.487346 32.062000000000005,44.487346 33.080000000000005,44.487346"/>
  </g>
</svg>
